<?xml version="1.0" encoding="UTF-8"?><svg id="Laag_1" xmlns="http://www.w3.org/2000/svg" viewBox="0 0 1079.67 185.33"><defs><style>.cls-1{fill:#fff;}.cls-2{fill:#fdc300;}</style></defs><g><path class="cls-1" d="M47.74,72.25h20.46v31.68h-20.46v78.32H14.74V103.93H0v-31.68H14.74c0-30.8,16.94-49.28,53.46-47.08v31.68c-12.32-1.1-20.46,2.64-20.46,15.4Z"/><path class="cls-1" d="M146.3,70.05v37.4c-13.64-2.2-33,3.3-33,25.08v49.72h-33V72.25h33v19.58c4.4-14.74,19.14-21.78,33-21.78Z"/><path class="cls-1" d="M271.26,72.25v110h-33v-10.34c-7.26,8.36-18.04,13.42-32.78,13.42-28.82,0-52.58-25.3-52.58-58.08s23.76-58.08,52.58-58.08c14.74,0,25.52,5.06,32.78,13.42v-10.34h33Zm-33,55c0-16.5-11-26.84-26.18-26.84s-26.18,10.34-26.18,26.84,11,26.84,26.18,26.84,26.18-10.34,26.18-26.84Z"/><path class="cls-1" d="M401.05,114.71v67.54h-33v-62.7c0-13.64-8.58-20.02-19.14-20.02-12.1,0-20.46,7.04-20.46,22.66v60.06h-33V72.25h33v10.34c5.94-8.14,16.94-13.42,31.46-13.42,22.22,0,41.14,15.84,41.14,45.54Z"/><path class="cls-1" d="M491.91,182.25l-35.2-48.62v48.62h-33V28.25h33V120.43l33-48.18h38.5l-40.04,55,41.14,55h-37.4Z"/><path class="cls-2" d="M539.21,164.43c0-11.44,9.46-20.9,20.9-20.9s20.9,9.46,20.9,20.9-9.46,20.9-20.9,20.9-20.9-9.46-20.9-20.9Zm1.1-92.18V28.25h39.6v44l-6.6,55h-26.4l-6.6-55Z"/><path class="cls-1" d="M629.63,67.85v4.4h31.68v14.08h-31.68v95.92h-14.52V86.33h-18.7v-14.08h18.7v-4.4c0-28.6,16.5-44.44,46.2-42.24v14.08c-21.34-1.76-31.68,7.04-31.68,28.16Z"/><path class="cls-1" d="M676.71,21.65h14.52V182.25h-14.52V21.65Z"/><path class="cls-1" d="M715.42,127.25c0-32.56,25.74-57.64,57.86-57.64s57.86,25.08,57.86,57.64-25.74,57.64-57.86,57.64-57.86-25.08-57.86-57.64Zm101.2,0c0-24.42-18.92-43.56-43.34-43.56s-43.34,19.14-43.34,43.56,18.92,43.56,43.34,43.56,43.34-19.14,43.34-43.56Z"/><path class="cls-1" d="M998.35,72.25l-33.88,110h-15.84l-28.38-88.66-28.38,88.66h-15.84l-33.88-110h14.96l27.06,91.3,28.82-91.3h14.52l28.82,91.3,27.06-91.3h14.96Z"/></g><g><path class="cls-1" d="M987.99,27c0,8.94-6.6,15.84-14.64,15.84-4.38,0-7.56-1.62-9.72-4.38v3.54h-7.74V0h7.74V15.54c2.16-2.76,5.34-4.38,9.72-4.38,8.04,0,14.64,6.9,14.64,15.84Zm-7.74,0c0-5.04-3.54-8.46-8.34-8.46s-8.28,3.42-8.28,8.46,3.54,8.46,8.28,8.46,8.34-3.42,8.34-8.46Z"/><path class="cls-1" d="M1008.45,35.82c3,0,5.4-1.26,6.72-3l6.24,3.6c-2.82,4.08-7.32,6.42-13.08,6.42-10.08,0-16.44-6.9-16.44-15.84s6.42-15.84,15.84-15.84c8.88,0,15.18,7.02,15.18,15.84,0,1.14-.12,2.16-.3,3.18h-22.62c1.08,3.96,4.38,5.64,8.46,5.64Zm6.72-11.64c-.96-4.32-4.2-6.06-7.44-6.06-4.14,0-6.96,2.22-7.86,6.06h15.3Z"/><path class="cls-1" d="M1037.79,19.44v12.48c0,3.24,2.34,3.3,6.78,3.06v7.02c-10.86,1.2-14.52-1.98-14.52-10.08v-12.48h-5.22v-7.44h5.22V5.94l7.74-2.34V12h6.78v7.44h-6.78Z"/><path class="cls-1" d="M1079.67,12v30h-7.74v-3.54c-2.16,2.7-5.4,4.38-9.78,4.38-7.98,0-14.58-6.9-14.58-15.84s6.6-15.84,14.58-15.84c4.38,0,7.62,1.68,9.78,4.38v-3.54h7.74Zm-7.74,15c0-5.04-3.54-8.46-8.34-8.46s-8.28,3.42-8.28,8.46,3.54,8.46,8.28,8.46,8.34-3.42,8.34-8.46Z"/></g></svg>