<?xml version="1.0" standalone="no"?>
<!DOCTYPE svg PUBLIC "-//W3C//DTD SVG 20010904//EN"
 "http://www.w3.org/TR/2001/REC-SVG-20010904/DTD/svg10.dtd">
<svg version="1.0" xmlns="http://www.w3.org/2000/svg"
 width="700.000000pt" height="700.000000pt" viewBox="0 0 700.000000 700.000000"
 preserveAspectRatio="xMidYMid meet">
<metadata>
Created by potrace 1.14, written by Peter Selinger 2001-2017
</metadata>
<g transform="translate(0.000000,700.000000) scale(0.100000,-0.100000)"
fill="#000000" stroke="none">
<path d="M1025 6989 c-159 -23 -354 -101 -501 -199 -101 -69 -245 -213 -314
-314 -102 -153 -176 -340 -199 -510 -15 -108 -15 -4824 0 -4932 35 -251 158
-494 343 -680 186 -185 429 -308 680 -343 53 -8 821 -11 2469 -11 2607 0 2472
-3 2659 56 179 57 337 154 479 294 142 141 237 292 299 478 63 189 60 41 60
2672 0 2631 3 2483 -60 2672 -145 434 -529 755 -974 817 -95 13 -4850 13
-4941 0z m4365 -3454 l0 -1895 -335 0 -335 0 0 1895 0 1895 335 0 335 0 0
-1895z m-942 1487 l2 -324 -47 7 c-27 3 -86 2 -133 -4 -237 -29 -350 -145
-367 -378 l-6 -83 274 -2 274 -3 3 -322 2 -323 -275 0 -275 0 -2 -972 -3 -973
-332 -3 -333 -2 0 975 0 975 -185 0 -185 0 0 325 0 325 183 0 184 0 6 123 c23
419 196 718 502 867 169 82 356 119 580 117 l130 -2 3 -323z m-1879 -274 l0
-523 -78 -640 -77 -640 -310 -3 -310 -2 -77 652 -78 653 1 513 0 512 465 0
465 0 -1 -522z m-328 -2214 c156 -46 287 -177 333 -333 23 -77 21 -204 -4
-284 -70 -225 -305 -373 -536 -337 -321 50 -510 396 -375 685 84 179 247 284
442 285 49 0 108 -7 140 -16z"/>
</g>
</svg>
