<svg fill="none" height="26" viewBox="0 0 155 26" width="155" xmlns="http://www.w3.org/2000/svg">
  <path
    d="M7.3177 8.34626H10.4699V13.3007H7.3177V25.4875H2.2516V13.3007H0V8.34626H2.2516C2.2516 3.56266 4.84094 0.658332 10.4699 1.00002V5.95446C8.55608 5.78362 7.3177 6.35309 7.3177 8.34626Z"
    fill="white"/>
  <path
    d="M22.516 8.00458V13.8132C20.4333 13.4715 17.4499 14.3258 17.4499 17.7426V25.4875H12.3838V8.34626H17.4499V11.4214C18.0691 9.08658 20.377 8.00458 22.516 8.00458Z"
    fill="white"/>
  <path
    d="M41.7109 8.34621V25.4874H36.6448V23.8929C35.519 25.2027 33.8865 26 31.5787 26C27.1317 26 23.4729 22.0706 23.4729 16.9453C23.4729 11.82 27.1317 7.89062 31.5787 7.89062C33.8303 7.89062 35.519 8.68789 36.6448 9.99769V8.40315H41.7109V8.34621ZM36.6448 16.8883C36.6448 14.3257 34.9561 12.7312 32.5919 12.7312C30.2277 12.7312 28.539 14.3257 28.539 16.8883C28.539 19.451 30.2277 21.0455 32.5919 21.0455C34.9561 21.0455 36.6448 19.5079 36.6448 16.8883Z"
    fill="white"/>
  <path
    d="M61.6938 14.9522V25.4875H56.6277V15.7495C56.6277 13.6424 55.2768 12.6173 53.7006 12.6173C51.8431 12.6173 50.5484 13.6993 50.5484 16.1481V25.4875H45.4823V8.34627H50.5484V9.9408C51.449 8.68795 53.1377 7.83374 55.3893 7.83374C58.823 7.89069 61.6938 10.3394 61.6938 14.9522Z"
    fill="white"/>
  <path
    d="M75.71 25.4875L70.3062 17.9134V25.4875H65.2401V1.51251H70.3062V15.8633L75.3723 8.34622H81.339L75.1471 16.8884L81.5079 25.4305L75.71 25.4875Z"
    fill="white"/>
  <path
    d="M82.9714 22.697C82.9714 20.8747 84.435 19.451 86.18 19.451C87.9813 19.451 89.3885 20.9316 89.3885 22.697C89.3885 24.5193 87.925 25.943 86.18 25.943C84.435 25.943 83.0277 24.5193 82.9714 22.697ZM83.1403 8.34622V1.51251H89.2196V8.34622L88.2064 16.8884H84.1535L83.1403 8.34622Z"
    fill="#FDC300"/>
  <path
    d="M99.6 10.364H95.92V25.5H93.008V10.364H90.736V7.964H93.008V6.716C93.008 4.75334 93.5093 3.324 94.512 2.428C95.536 1.51067 97.168 1.052 99.408 1.052V3.484C98.128 3.484 97.2213 3.74 96.688 4.252C96.176 4.74267 95.92 5.564 95.92 6.716V7.964H99.6V10.364Z"
    fill="white"/>
  <path d="M105.907 1.82V25.5H102.995V1.82H105.907Z" fill="white"/>
  <path
    d="M118.518 25.788C116.876 25.788 115.382 25.4147 114.038 24.668C112.716 23.9213 111.67 22.8653 110.902 21.5C110.156 20.1133 109.782 18.5133 109.782 16.7C109.782 14.908 110.166 13.3293 110.934 11.964C111.724 10.5773 112.79 9.52134 114.134 8.796C115.478 8.04934 116.982 7.676 118.646 7.676C120.31 7.676 121.814 8.04934 123.158 8.796C124.502 9.52134 125.558 10.5667 126.326 11.932C127.116 13.2973 127.51 14.8867 127.51 16.7C127.51 18.5133 127.105 20.1133 126.294 21.5C125.505 22.8653 124.428 23.9213 123.062 24.668C121.697 25.4147 120.182 25.788 118.518 25.788ZM118.518 23.228C119.564 23.228 120.545 22.9827 121.462 22.492C122.38 22.0013 123.116 21.2653 123.67 20.284C124.246 19.3027 124.534 18.108 124.534 16.7C124.534 15.292 124.257 14.0973 123.702 13.116C123.148 12.1347 122.422 11.4093 121.526 10.94C120.63 10.4493 119.66 10.204 118.614 10.204C117.548 10.204 116.566 10.4493 115.67 10.94C114.796 11.4093 114.092 12.1347 113.558 13.116C113.025 14.0973 112.758 15.292 112.758 16.7C112.758 18.1293 113.014 19.3347 113.526 20.316C114.06 21.2973 114.764 22.0333 115.638 22.524C116.513 22.9933 117.473 23.228 118.518 23.228Z"
    fill="white"/>
  <path
    d="M154.699 7.964L149.227 25.5H146.219L141.995 11.58L137.771 25.5H134.763L129.259 7.964H132.235L136.267 22.684L140.619 7.964H143.595L147.851 22.716L151.819 7.964H154.699Z"
    fill="white"/>
</svg>
